<svg xmlns="http://www.w3.org/2000/svg" viewBox="0 0 26 26" id="Arrow">
  <g fill-rule="evenodd" transform="translate(0 -1026.362)" fill="#eb0e0e" class="color000000 svgShape">
    <circle cx="13" cy="1039.362" r="13" fill="#db2323" class="color239fdb svgShape"></circle>
    <path fill="#cd0b0b" d="M17.756 25.096a13 13 0 0 0 1.14-.51 13 13 0 0 0 1.127-.647 13 13 0 0 0 1.057-.755 13 13 0 0 0 .977-.858 13 13 0 0 0 .886-.951 13 13 0 0 0 .618-.814L13 10l-5 5.3.66.7 9.096 9.096z" color="#000" font-family="sans-serif" font-weight="400" style="line-height:normal;text-indent:0;text-align:start;text-decoration-line:none;text-decoration-style:solid;text-decoration-color:#000;text-transform:none;block-progression:tb;isolation:auto;mix-blend-mode:normal" transform="translate(0 1026.362)" class="color0b5ecd svgShape"></path>
    <path fill="#ffffff" d="m8 5-5 5.3.66.7L8 6.4l4.34 4.6.66-.7L8 5Z" color="#000" font-family="sans-serif" font-weight="400" overflow="visible" style="line-height:normal;text-indent:0;text-align:start;text-decoration-line:none;text-decoration-style:solid;text-decoration-color:#000;text-transform:none;block-progression:tb;isolation:auto;mix-blend-mode:normal" transform="translate(5 1031.362)" class="colorffffff svgShape"></path>
  </g>
</svg>
