<svg xmlns="http://www.w3.org/2000/svg" viewBox="0 0 48 48" id="check">
  <g>
    <path d="M24,5A19,19,0,1,0,43,24,19,19,0,0,0,24,5Zm0,36A17,17,0,1,1,41,24,17,17,0,0,1,24,41Z"></path>
    <path d="M35.74,17.12l-2.63-2.63a1,1,0,0,0-1.41,0l-12,12L16.31,23a1,1,0,0,0-1.41,0l-2.64,2.63a1,1,0,0,0-.3.7,1,1,0,0,0,.3.71l4.12,4.13h0L19,33.84s0,0,0,0a1.16,1.16,0,0,0,.27.18,1,1,0,0,0,.33.06h.05a1,1,0,0,0,.38-.07.91.91,0,0,0,.33-.22l2.64-2.63s0,0,0,0L35.74,18.53a1,1,0,0,0,.29-.71A1,1,0,0,0,35.74,17.12Zm-16,14.6L17.8,29.8a.6.6,0,0,0-.08-.08l-3.34-3.34,1.22-1.22L19,28.57a1,1,0,0,0,1.41,0l12-12,1.22,1.21Z"></path>
  </g>
</svg>
